<svg xmlns="http://www.w3.org/2000/svg" width="17" height="21.262" viewBox="0 0 17 21.262">
  <g id="Icon_ionic-ios-notifications" data-name="Icon ionic-ios-notifications" transform="translate(-6.761 -3.93)">
    <path id="Path_3" data-name="Path 3" d="M17.554,31.58c1.9,0,2.944-1.347,2.944-3.244H14.6C14.6,30.233,15.644,31.58,17.554,31.58Z" transform="translate(-2.303 -6.387)" fill="#003661"/>
    <path id="Path_4" data-name="Path 4" d="M23.546,19.152c-.818-1.043-2.429-1.654-2.429-6.324,0-4.793-2.189-6.72-4.23-7.182-.191-.046-.329-.108-.329-.3V5.194a1.3,1.3,0,0,0-2.593,0v.149c0,.19-.138.257-.329.3-2.046.467-4.23,2.389-4.23,7.182,0,4.67-1.61,5.276-2.429,6.324a1.018,1.018,0,0,0,.845,1.634H22.706A1.018,1.018,0,0,0,23.546,19.152Z" transform="translate(0 0)" fill="#003661"/>
  </g>
</svg>
