<svg width="11" height="13" viewBox="0 0 11 13" fill="none" xmlns="http://www.w3.org/2000/svg">
<path d="M10.558 9.81799C9.90098 9.81799 9.82498 9.06799 8.81198 9.06799C7.79898 9.06799 7.71398 9.81799 7.05798 9.81799C6.40198 9.81799 6.32098 9.06799 5.30598 9.06799C4.29098 9.06799 4.20098 9.81799 3.55798 9.81799C2.89798 9.81799 2.82698 9.06799 1.80598 9.06799C0.784983 9.06799 0.716983 9.81799 0.0579834 9.81799V7.94299C0.0579834 7.64462 0.17651 7.35848 0.387488 7.1475C0.598467 6.93652 0.884615 6.81799 1.18298 6.81799H1.55798V3.44299H3.05798V6.81799H4.55798V3.44299H6.05798V6.81799H7.55798V3.44299H9.05798V6.81799H9.43298C9.73135 6.81799 10.0175 6.93652 10.2285 7.1475C10.4395 7.35848 10.558 7.64462 10.558 7.94299V9.81799ZM10.558 12.818H0.0579834V10.568C1.07398 10.568 1.15798 9.81799 1.80998 9.81799C2.46198 9.81799 2.54198 10.568 3.56198 10.568C4.56198 10.568 4.66898 9.81799 5.30798 9.81799C5.96798 9.81799 6.03898 10.568 7.05998 10.568C8.08098 10.568 8.15798 9.81799 8.81198 9.81799C9.46598 9.81799 9.54398 10.568 10.558 10.568V12.818ZM2.30798 3.06799C2.20942 3.06826 2.11177 3.04904 2.02066 3.01144C1.92955 2.97384 1.84676 2.91861 1.77706 2.84891C1.70737 2.77922 1.65213 2.69643 1.61454 2.60532C1.57694 2.5142 1.55772 2.41656 1.55798 2.31799C1.55798 1.59099 2.30798 1.77899 2.30798 0.817993C2.58898 0.817993 3.05798 1.50899 3.05798 2.13099C3.05798 2.75299 2.72398 3.06799 2.30798 3.06799ZM5.30798 3.06799C5.20942 3.06826 5.11177 3.04904 5.02066 3.01144C4.92955 2.97384 4.84676 2.91861 4.77706 2.84891C4.70737 2.77922 4.65213 2.69643 4.61454 2.60532C4.57694 2.5142 4.55772 2.41656 4.55798 2.31799C4.55798 1.59099 5.30798 1.77899 5.30798 0.817993C5.58898 0.817993 6.05798 1.50899 6.05798 2.13099C6.05798 2.75299 5.72398 3.06799 5.30798 3.06799ZM8.30798 3.06799C8.20942 3.06826 8.11177 3.04904 8.02066 3.01144C7.92955 2.97384 7.84676 2.91861 7.77706 2.84891C7.70737 2.77922 7.65213 2.69643 7.61454 2.60532C7.57694 2.5142 7.55772 2.41656 7.55798 2.31799C7.55798 1.59099 8.30798 1.77899 8.30798 0.817993C8.58898 0.817993 9.05798 1.50899 9.05798 2.13099C9.05798 2.75299 8.72398 3.06799 8.30798 3.06799Z" fill="black"/>
</svg>
