<svg width="17" height="10" viewBox="0 0 17 10" fill="none" xmlns="http://www.w3.org/2000/svg">
<path d="M8.83899 6.72404L14.984 0.574036C15.0915 0.466035 15.2193 0.380334 15.36 0.321856C15.5007 0.263379 15.6516 0.233276 15.804 0.233276C15.9564 0.233276 16.1073 0.263379 16.248 0.321856C16.3887 0.380334 16.5165 0.466035 16.624 0.574036C16.8402 0.793176 16.9615 1.08866 16.9615 1.39653C16.9615 1.70441 16.8402 1.99989 16.624 2.21904L9.66098 9.18604C9.44981 9.39632 9.16575 9.51719 8.86779 9.52352C8.56984 9.52985 8.2809 9.42116 8.06098 9.22003L1.04998 2.22004C0.843035 2.0003 0.729713 1.70866 0.734004 1.40684C0.738296 1.10502 0.859865 0.816716 1.07298 0.602952C1.28609 0.389188 1.57403 0.266742 1.87583 0.261532C2.17763 0.256321 2.46962 0.368755 2.68999 0.575035L8.83899 6.72404Z" fill="#003661"/>
</svg>
