<svg width="11" height="12" viewBox="0 0 11 12" fill="none" xmlns="http://www.w3.org/2000/svg">
<path d="M7.94998 5.93294L7.33198 5.31494L4.48498 8.16494L3.24898 6.92494L2.63098 7.54294L4.48598 9.39794L7.94998 5.93294ZM9.39098 1.23294H8.80798V0.0649414H7.64098V1.23194H2.97498V0.0649414H1.80798V1.23194H1.22498C1.0721 1.23194 0.920716 1.26214 0.77953 1.32079C0.638345 1.37945 0.510135 1.46542 0.40226 1.57376C0.294386 1.6821 0.208971 1.81067 0.15092 1.95211C0.0928695 2.09355 0.0633254 2.24506 0.0639839 2.39794L0.0579838 10.5649C0.0578523 10.7182 0.0879481 10.87 0.146549 11.0117C0.205149 11.1533 0.291105 11.282 0.399497 11.3904C0.507889 11.4988 0.63659 11.5848 0.778237 11.6434C0.919883 11.702 1.07169 11.7321 1.22498 11.7319H9.39198C9.70107 11.7309 9.99719 11.6076 10.2157 11.3889C10.4341 11.1703 10.5572 10.874 10.558 10.5649V2.39794C10.5569 2.08885 10.4336 1.79274 10.215 1.57427C9.9963 1.3558 9.70008 1.23273 9.39098 1.23194V1.23294ZM9.39098 10.5659H1.22498V4.14794H9.39198L9.39098 10.5659Z" fill="black"/>
</svg>
