<svg xmlns="http://www.w3.org/2000/svg" width="10.043" height="6.695" viewBox="0 0 10.043 6.695">
  <path id="Icon_awesome-eye" data-name="Icon awesome-eye" d="M9.982,7.593A5.592,5.592,0,0,0,5.021,4.5,5.593,5.593,0,0,0,.061,7.593a.564.564,0,0,0,0,.509A5.592,5.592,0,0,0,5.021,11.2,5.593,5.593,0,0,0,9.982,8.1.564.564,0,0,0,9.982,7.593ZM5.021,10.358A2.511,2.511,0,1,1,7.532,7.848,2.511,2.511,0,0,1,5.021,10.358Zm0-4.184a1.662,1.662,0,0,0-.441.066A.834.834,0,0,1,3.414,7.406,1.67,1.67,0,1,0,5.021,6.174Z" transform="translate(0 -4.5)" fill="#fff"/>
</svg>
