<svg width="27" height="19" viewBox="0 0 27 19" fill="none" xmlns="http://www.w3.org/2000/svg">
<path d="M18.413 0.421021C17.313 0.421021 15.176 1.97502 13.363 1.97502C11.55 1.97502 9.28395 0.421021 8.31295 0.421021C1.64395 0.421021 -2.17605 18.356 2.81295 18.356C7.02195 18.356 7.58795 13.111 13.351 13.111C18.013 13.111 20.751 18.292 23.857 18.292C28.842 18.292 25.088 0.421021 18.418 0.421021H18.413ZM7.92295 10.521C7.23072 10.521 6.55403 10.3157 5.97846 9.93116C5.40288 9.54658 4.95428 8.99995 4.68937 8.36041C4.42447 7.72087 4.35516 7.01714 4.4902 6.3382C4.62525 5.65927 4.9586 5.03563 5.44808 4.54615C5.93756 4.05666 6.5612 3.72332 7.24014 3.58827C7.91907 3.45322 8.6228 3.52254 9.26234 3.78744C9.90189 4.05235 10.4485 4.50095 10.8331 5.07652C11.2177 5.6521 11.423 6.32879 11.423 7.02102C11.4231 7.48082 11.3326 7.93613 11.1567 8.36095C10.9808 8.78577 10.7229 9.17177 10.3978 9.49689C10.0727 9.82202 9.6867 10.0799 9.26188 10.2558C8.83706 10.4317 8.38175 10.5222 7.92195 10.522L7.92295 10.521ZM17.199 8.57902C17.0453 8.57902 16.8951 8.53345 16.7673 8.44807C16.6395 8.36269 16.5399 8.24134 16.4811 8.09937C16.4223 7.95739 16.4069 7.80116 16.4369 7.65044C16.4669 7.49971 16.5409 7.36126 16.6495 7.2526C16.7582 7.14393 16.8966 7.06993 17.0474 7.03995C17.1981 7.00997 17.3543 7.02536 17.4963 7.08417C17.6383 7.14298 17.7596 7.24257 17.845 7.37034C17.9304 7.49812 17.976 7.64834 17.976 7.80202C17.9762 7.90426 17.9563 8.00555 17.9173 8.10006C17.8783 8.19457 17.821 8.28044 17.7487 8.35274C17.6764 8.42503 17.5905 8.48233 17.496 8.52134C17.4015 8.56034 17.3002 8.58029 17.198 8.58002L17.199 8.57902ZM19.579 10.91C19.4253 10.91 19.2751 10.8644 19.1473 10.7791C19.0195 10.6937 18.9199 10.5723 18.8611 10.4304C18.8023 10.2884 18.7869 10.1322 18.8169 9.98144C18.8469 9.83071 18.9209 9.69226 19.0295 9.5836C19.1382 9.47493 19.2766 9.40093 19.4274 9.37095C19.5781 9.34097 19.7343 9.35636 19.8763 9.41517C20.0183 9.47398 20.1396 9.57356 20.225 9.70134C20.3104 9.82912 20.356 9.97934 20.356 10.133C20.3562 10.2353 20.3363 10.3366 20.2973 10.4311C20.2583 10.5256 20.201 10.6114 20.1287 10.6837C20.0564 10.756 19.9705 10.8133 19.876 10.8523C19.7815 10.8913 19.6802 10.9113 19.578 10.911L19.579 10.91ZM19.579 6.24802C19.4253 6.24802 19.2751 6.20245 19.1473 6.11707C19.0195 6.03169 18.9199 5.91034 18.8611 5.76837C18.8023 5.62639 18.7869 5.47016 18.8169 5.31944C18.8469 5.16871 18.9209 5.03026 19.0295 4.9216C19.1382 4.81293 19.2766 4.73893 19.4274 4.70895C19.5781 4.67897 19.7343 4.69436 19.8763 4.75317C20.0183 4.81198 20.1396 4.91156 20.225 5.03934C20.3104 5.16712 20.356 5.31734 20.356 5.47102C20.3562 5.57326 20.3363 5.67455 20.2973 5.76906C20.2583 5.86357 20.201 5.94944 20.1287 6.02174C20.0564 6.09403 19.9705 6.15133 19.876 6.19034C19.7815 6.22934 19.6802 6.24928 19.578 6.24902L19.579 6.24802ZM21.91 8.57902C21.7563 8.57902 21.6061 8.53345 21.4783 8.44807C21.3505 8.36269 21.2509 8.24134 21.1921 8.09937C21.1333 7.95739 21.1179 7.80116 21.1479 7.65044C21.1779 7.49971 21.2519 7.36126 21.3605 7.2526C21.4692 7.14393 21.6076 7.06993 21.7584 7.03995C21.9091 7.00997 22.0653 7.02536 22.2073 7.08417C22.3493 7.14298 22.4706 7.24257 22.556 7.37034C22.6414 7.49812 22.687 7.64834 22.687 7.80202C22.6872 7.90426 22.6673 8.00555 22.6283 8.10006C22.5893 8.19457 22.532 8.28044 22.4597 8.35274C22.3874 8.42503 22.3015 8.48233 22.207 8.52134C22.1125 8.56034 22.0112 8.58029 21.909 8.58002L21.91 8.57902ZM7.92295 5.07902C7.53886 5.07803 7.16311 5.19096 6.8432 5.40353C6.52329 5.6161 6.2736 5.91875 6.1257 6.27323C5.97781 6.6277 5.93834 7.01807 6.01231 7.39498C6.08627 7.77188 6.27033 8.11838 6.54123 8.39068C6.81212 8.66297 7.15767 8.84881 7.53419 8.92472C7.91071 9.00062 8.30127 8.96317 8.65651 8.8171C9.01174 8.67103 9.31568 8.4229 9.52989 8.10409C9.7441 7.78528 9.85896 7.41011 9.85995 7.02602C9.85995 6.51157 9.65593 6.01812 9.29263 5.65388C8.92933 5.28964 8.4364 5.08434 7.92195 5.08302L7.92295 5.07902Z" fill="#FFF9F9"/>
</svg>
