<svg width="19" height="5" viewBox="0 0 19 5" fill="none" xmlns="http://www.w3.org/2000/svg">
<path opacity="0.5" d="M0.368062 2.24505C0.368062 1.82021 0.49404 1.40492 0.730065 1.05168C0.96609 0.698445 1.30156 0.423131 1.69406 0.260554C2.08655 0.0979766 2.51844 0.055439 2.93512 0.13832C3.35179 0.221201 3.73452 0.425778 4.03493 0.726182C4.33533 1.02658 4.53991 1.40932 4.62279 1.82599C4.70567 2.24266 4.66313 2.67456 4.50055 3.06705C4.33798 3.45955 4.06266 3.79502 3.70943 4.03104C3.35619 4.26707 2.9409 4.39305 2.51606 4.39305C2.23398 4.39305 1.95466 4.33749 1.69406 4.22954C1.43345 4.12159 1.19666 3.96337 0.997196 3.76391C0.797736 3.56445 0.639515 3.32766 0.531569 3.06705C0.423622 2.80644 0.368062 2.52713 0.368062 2.24505Z" fill="black"/>
<path opacity="0.5" d="M7.36806 2.24505C7.36806 1.82021 7.49404 1.40492 7.73006 1.05168C7.96609 0.698445 8.30156 0.423131 8.69406 0.260554C9.08655 0.0979766 9.51844 0.055439 9.93512 0.13832C10.3518 0.221201 10.7345 0.425778 11.0349 0.726182C11.3353 1.02658 11.5399 1.40932 11.6228 1.82599C11.7057 2.24266 11.6631 2.67456 11.5006 3.06705C11.338 3.45955 11.0627 3.79502 10.7094 4.03104C10.3562 4.26707 9.9409 4.39305 9.51606 4.39305C9.23398 4.39305 8.95466 4.33749 8.69406 4.22954C8.43345 4.12159 8.19666 3.96337 7.9972 3.76391C7.79774 3.56445 7.63952 3.32766 7.53157 3.06705C7.42362 2.80644 7.36806 2.52713 7.36806 2.24505Z" fill="black"/>
<path opacity="0.5" d="M14.369 2.24505C14.369 1.82021 14.495 1.40492 14.731 1.05168C14.9671 0.698445 15.3025 0.423131 15.695 0.260554C16.0875 0.0979766 16.5194 0.055439 16.9361 0.13832C17.3528 0.221201 17.7355 0.425778 18.0359 0.726182C18.3363 1.02658 18.5409 1.40932 18.6238 1.82599C18.7066 2.24266 18.6641 2.67456 18.5015 3.06705C18.339 3.45955 18.0636 3.79502 17.7104 4.03104C17.3572 4.26707 16.9419 4.39305 16.517 4.39305C16.235 4.39305 15.9556 4.33749 15.695 4.22954C15.4344 4.12159 15.1976 3.96337 14.9982 3.76391C14.7987 3.56445 14.6405 3.32766 14.5325 3.06705C14.4246 2.80644 14.369 2.52713 14.369 2.24505Z" fill="black"/>
</svg>
