<svg width="21" height="21" viewBox="0 0 21 21" fill="none" xmlns="http://www.w3.org/2000/svg">
<path d="M20.761 0.737C8.34502 0.737 5.86202 3.22 5.86202 3.22V13.376C5.46212 13.2376 5.04309 13.1624 4.62002 13.153C3.88324 13.153 3.16301 13.3715 2.55042 13.7808C1.93782 14.1902 1.46038 14.772 1.17847 15.4527C0.896567 16.1334 0.822858 16.8825 0.966669 17.6051C1.11048 18.3277 1.46535 18.9914 1.9864 19.5123C2.50745 20.0332 3.17128 20.3879 3.89392 20.5315C4.61657 20.6752 5.36557 20.6013 6.04621 20.3192C6.72685 20.0371 7.30854 19.5595 7.71773 18.9468C8.12692 18.3341 8.34522 17.6138 8.34502 16.877V7.019C11.589 6.18032 14.9274 5.76289 18.278 5.777V10.892C17.8781 10.7536 17.4591 10.6784 17.036 10.669C16.2993 10.669 15.5791 10.8875 14.9665 11.2968C14.3539 11.7061 13.8765 12.2878 13.5946 12.9685C13.3126 13.6492 13.2389 14.3981 13.3826 15.1207C13.5263 15.8433 13.8811 16.507 14.402 17.028C14.923 17.5489 15.5867 17.9037 16.3093 18.0474C17.0319 18.1912 17.7809 18.1174 18.4615 17.8355C19.1422 17.5535 19.7239 17.0761 20.1332 16.4635C20.5426 15.8509 20.761 15.1307 20.761 14.394V0.737Z" fill="white"/>
</svg>
