<svg width="17" height="17" viewBox="0 0 17 17" fill="none" xmlns="http://www.w3.org/2000/svg">
<path opacity="0.5" d="M16.3839 15.3429L11.9339 10.8519C12.9419 9.58077 13.4244 7.97156 13.282 6.35545C13.1397 4.73933 12.3833 3.23927 11.1685 2.16392C9.95366 1.08858 8.3729 0.519772 6.75145 0.574541C5.13 0.629309 3.59122 1.30349 2.45176 2.45835C1.31229 3.61322 0.658826 5.16091 0.625825 6.78294C0.592825 8.40498 1.1828 9.97797 2.27435 11.1782C3.3659 12.3785 4.87599 13.1147 6.49387 13.2354C8.11174 13.356 9.71434 12.852 10.9719 11.8269L15.3929 16.2889C15.5179 16.4203 15.6899 16.4966 15.8712 16.5013C16.0525 16.506 16.2282 16.4386 16.3599 16.3139C16.4913 16.1881 16.5676 16.0153 16.5721 15.8334C16.5766 15.6515 16.5089 15.4752 16.3839 15.3429ZM6.95086 11.8809C5.7925 11.8809 4.66997 11.4793 3.77453 10.7444C2.8791 10.0096 2.26615 8.98701 2.04013 7.85091C1.81412 6.71481 1.98901 5.53548 2.53501 4.51387C3.08101 3.49226 3.96434 2.69156 5.0345 2.24821C6.10466 1.80485 7.29544 1.74626 8.40395 2.08243C9.51247 2.41859 10.4701 3.12871 11.1138 4.09179C11.7574 5.05487 12.0472 6.21133 11.9338 7.36413C11.8204 8.51693 11.3108 9.59475 10.4919 10.4139C10.0279 10.8804 9.47609 11.2503 8.86828 11.5021C8.26047 11.7539 7.60876 11.8827 6.95086 11.8809Z" fill="black"/>
</svg>
