<svg width="13" height="13" viewBox="0 0 13 13" fill="none" xmlns="http://www.w3.org/2000/svg">
<path d="M12.255 0.454024L0.303964 5.66302C0.256164 5.6856 0.215916 5.72152 0.18807 5.76645C0.160224 5.81138 0.14597 5.86341 0.147027 5.91626C0.148084 5.96911 0.164407 6.02053 0.194027 6.06431C0.223647 6.1081 0.2653 6.14238 0.313964 6.16302L3.54596 7.98702C3.63975 8.0406 3.74787 8.0637 3.85536 8.05313C3.96286 8.04256 4.06441 7.99884 4.14596 7.92802L10.52 2.42802C10.562 2.39202 10.663 2.32802 10.702 2.36302C10.741 2.39802 10.679 2.50302 10.643 2.54502L5.12496 8.76202C5.05 8.84603 5.00439 8.95214 4.99501 9.06433C4.98563 9.17653 5.01299 9.28874 5.07296 9.38402L7.18596 12.773C7.20913 12.8192 7.24484 12.8579 7.28901 12.8848C7.33317 12.9116 7.38399 12.9254 7.43566 12.9247C7.48732 12.924 7.53774 12.9087 7.58112 12.8806C7.62451 12.8526 7.65911 12.8128 7.68096 12.766L12.622 0.815024C12.6452 0.763885 12.6522 0.706823 12.642 0.651573C12.6318 0.596323 12.6048 0.545557 12.5647 0.506153C12.5247 0.466749 12.4735 0.440614 12.4181 0.43129C12.3627 0.421965 12.3057 0.429902 12.255 0.454024Z" fill="#949494"/>
</svg>
