<svg width="42" height="42" viewBox="0 0 42 42" fill="none" xmlns="http://www.w3.org/2000/svg">
<path d="M20.638 41.83C31.9598 41.83 41.138 32.6518 41.138 21.33C41.138 10.0081 31.9598 0.829956 20.638 0.829956C9.31616 0.829956 0.138 10.0081 0.138 21.33C0.138 32.6518 9.31616 41.83 20.638 41.83Z" fill="#0064B4"/>
<path d="M33.9004 20.6702L13.1468 12.5159C13.062 12.4864 12.9707 12.4819 12.8834 12.5028C12.7962 12.5238 12.7168 12.5693 12.6547 12.6339C12.5926 12.6986 12.5503 12.7798 12.5328 12.8677C12.5154 12.9557 12.5236 13.0469 12.5563 13.1303L14.2569 19.2489C14.3061 19.4254 14.4085 19.5824 14.55 19.6987C14.6916 19.8149 14.8655 19.8848 15.0482 19.8988L29.4025 20.9594C29.4965 20.9672 29.7016 21.0068 29.7016 21.1016C29.7016 21.1963 29.505 21.243 29.4102 21.2515L15.2299 22.0957C15.0377 22.1069 14.8543 22.1801 14.7072 22.3044C14.5602 22.4288 14.4575 22.5975 14.4146 22.7852L12.8689 29.4419C12.841 29.5257 12.8372 29.6156 12.8581 29.7014C12.8789 29.7872 12.9236 29.8654 12.9868 29.927C13.0501 29.9887 13.1294 30.0312 13.2157 30.0498C13.302 30.0685 13.3918 30.0624 13.4749 30.0323L33.9081 21.552C33.9984 21.5183 34.0761 21.4577 34.1307 21.3783C34.1853 21.299 34.2142 21.2047 34.2133 21.1084C34.2125 21.012 34.182 20.9183 34.126 20.8399C34.07 20.7615 33.9912 20.7023 33.9004 20.6702Z" fill="white"/>
</svg>
