<svg width="21" height="21" viewBox="0 0 21 21" fill="none" xmlns="http://www.w3.org/2000/svg">
<path d="M18.658 10.988C18.6585 10.468 18.8166 9.96042 19.1113 9.53201C19.406 9.1036 19.8236 8.7745 20.309 8.58804C20.0577 7.53762 19.6412 6.53379 19.075 5.61404C18.7452 5.76031 18.3887 5.83659 18.028 5.83804C17.5992 5.8388 17.1772 5.73222 16.8002 5.52802C16.4233 5.32382 16.1034 5.0285 15.8699 4.66899C15.6363 4.30947 15.4965 3.89721 15.4632 3.4698C15.4298 3.04238 15.504 2.61342 15.679 2.22204C14.7607 1.65578 13.7581 1.23924 12.709 0.988037C12.5225 1.47332 12.1934 1.89068 11.7649 2.18507C11.3365 2.47947 10.8288 2.63706 10.309 2.63706C9.78911 2.63706 9.28146 2.47947 8.853 2.18507C8.42454 1.89068 8.09538 1.47332 7.90896 0.988037C6.8582 1.23922 5.85402 1.65575 4.93396 2.22204C5.1087 2.61338 5.18271 3.04223 5.14926 3.4695C5.1158 3.89678 4.97594 4.30888 4.74242 4.66826C4.5089 5.02763 4.18915 5.32285 3.81231 5.52699C3.43548 5.73114 3.01354 5.83773 2.58496 5.83704C2.22395 5.83814 1.86691 5.76175 1.53796 5.61304C0.976774 6.53511 0.562168 7.53873 0.30896 8.58804C0.793608 8.77476 1.2104 9.10378 1.50454 9.53184C1.79867 9.9599 1.95638 10.4669 1.95692 10.9863C1.95746 11.5057 1.80081 12.0131 1.50757 12.4417C1.21433 12.8704 0.798218 13.2003 0.31396 13.388C0.564954 14.4406 0.981833 15.4465 1.54896 16.368C2.02344 16.1574 2.5506 16.0955 3.06097 16.1905C3.57134 16.2854 4.04097 16.5327 4.408 16.8998C4.77502 17.267 5.0222 17.7367 5.11699 18.2471C5.21177 18.7575 5.1497 19.2846 4.93896 19.759C5.85794 20.3239 6.86025 20.7404 7.90896 20.993C8.09519 20.5087 8.42384 20.0921 8.85157 19.7983C9.27931 19.5045 9.78604 19.3473 10.305 19.3473C10.8239 19.3473 11.3306 19.5045 11.7583 19.7983C12.1861 20.0921 12.5147 20.5087 12.701 20.993C13.7514 20.7418 14.7552 20.3252 15.675 19.759C15.4647 19.2842 15.4031 18.7568 15.4983 18.2463C15.5936 17.7358 15.8412 17.2661 16.2085 16.8991C16.5759 16.532 17.0458 16.2848 17.5564 16.1901C18.067 16.0953 18.5943 16.1573 19.069 16.368C19.6342 15.4478 20.0507 14.4441 20.303 13.394C19.8187 13.2048 19.4027 12.8741 19.1092 12.4449C18.8158 12.0157 18.6585 11.508 18.658 10.988ZM10.358 15.149C9.5338 15.149 8.72816 14.9046 8.0429 14.4468C7.35764 13.9889 6.82354 13.3381 6.50815 12.5767C6.19276 11.8153 6.11024 10.9774 6.27103 10.1691C6.43181 9.36078 6.82868 8.61829 7.41145 8.03552C7.99421 7.45276 8.7367 7.05589 9.54502 6.8951C10.3533 6.73432 11.1912 6.81684 11.9526 7.13223C12.714 7.44762 13.3648 7.98172 13.8227 8.66698C14.2806 9.35224 14.525 10.1579 14.525 10.982C14.5251 11.5295 14.4173 12.0715 14.2078 12.5773C13.9984 13.0831 13.6912 13.5426 13.3041 13.9296C12.9169 14.3165 12.4572 14.6234 11.9514 14.8327C11.4455 15.0419 10.9034 15.1494 10.356 15.149H10.358Z" fill="#003661"/>
</svg>
