<svg width="18" height="18" viewBox="0 0 18 18" fill="none" xmlns="http://www.w3.org/2000/svg">
<path d="M17.227 2.31798C17.146 2.01419 16.9864 1.73708 16.7644 1.51449C16.5423 1.29191 16.2656 1.13171 15.962 1.04998C14.8011 0.741783 13.6078 0.572267 12.407 0.544983L17.718 5.86298C17.6942 4.66613 17.5294 3.47626 17.227 2.31798ZM1.388 15.593C1.46885 15.897 1.62833 16.1743 1.85039 16.397C2.07246 16.6198 2.34928 16.7802 2.653 16.862C3.81356 17.1701 5.00654 17.3396 6.207 17.367L0.895996 12.049C0.920253 13.2455 1.08539 14.4351 1.388 15.593ZM1.038 9.88198L8.371 17.228C10.6989 16.908 12.8585 15.836 14.5208 14.1751C16.1831 12.5143 17.257 10.3556 17.579 8.02798L10.243 0.681983C7.91515 1.00142 5.75564 2.07337 4.09373 3.73438C2.43182 5.39539 1.3587 7.55431 1.038 9.88198ZM11.796 5.69298C11.8469 5.64248 11.9158 5.61415 11.9875 5.61415C12.0592 5.61415 12.1281 5.64248 12.179 5.69298L12.562 6.07598C12.6125 6.12692 12.6408 6.19575 12.6408 6.26748C12.6408 6.33921 12.6125 6.40804 12.562 6.45898L11.602 7.41898L12.562 8.37898C12.6125 8.42992 12.6408 8.49875 12.6408 8.57048C12.6408 8.64221 12.6125 8.71104 12.562 8.76198L12.179 9.14498C12.1281 9.19549 12.0592 9.22382 11.9875 9.22382C11.9158 9.22382 11.8469 9.19549 11.796 9.14498L10.836 8.18498L10.069 8.95498L11.029 9.91498C11.0795 9.96592 11.1078 10.0348 11.1078 10.1065C11.1078 10.1782 11.0795 10.247 11.029 10.298L10.646 10.681C10.5951 10.7315 10.5262 10.7598 10.4545 10.7598C10.3828 10.7598 10.3139 10.7315 10.263 10.681L9.303 9.72098L8.536 10.488L9.496 11.448C9.5465 11.4989 9.57483 11.5678 9.57483 11.6395C9.57483 11.7112 9.5465 11.78 9.496 11.831L9.113 12.214C9.06206 12.2645 8.99323 12.2928 8.9215 12.2928C8.84976 12.2928 8.78094 12.2645 8.73 12.214L7.77 11.254L6.81 12.214C6.75906 12.2645 6.69023 12.2928 6.6185 12.2928C6.54676 12.2928 6.47794 12.2645 6.427 12.214L6.044 11.831C5.99349 11.78 5.96516 11.7112 5.96516 11.6395C5.96516 11.5678 5.99349 11.4989 6.044 11.448L7.004 10.488L6.044 9.53198C5.99349 9.48104 5.96516 9.41221 5.96516 9.34048C5.96516 9.26875 5.99349 9.19992 6.044 9.14898L6.427 8.76598C6.47794 8.71548 6.54676 8.68715 6.6185 8.68715C6.69023 8.68715 6.75906 8.71548 6.81 8.76598L7.77 9.72598L8.537 8.95898L7.577 7.99898C7.52649 7.94804 7.49816 7.87921 7.49816 7.80748C7.49816 7.73575 7.52649 7.66692 7.577 7.61598L7.96 7.23298C8.01094 7.18248 8.07976 7.15415 8.1515 7.15415C8.22323 7.15415 8.29206 7.18248 8.343 7.23298L9.303 8.19298L10.07 7.42598L9.11 6.46598C9.05949 6.41504 9.03116 6.34621 9.03116 6.27448C9.03116 6.20275 9.05949 6.13392 9.11 6.08298L9.496 5.69998C9.54694 5.64948 9.61576 5.62115 9.6875 5.62115C9.75923 5.62115 9.82806 5.64948 9.879 5.69998L10.839 6.65998L11.796 5.69298Z" fill="white"/>
</svg>
