<svg width="3" height="12" viewBox="0 0 3 12" fill="none" xmlns="http://www.w3.org/2000/svg">
<path opacity="0.5" d="M1.30902 0C1.05012 0 0.797036 0.0767727 0.581768 0.22061C0.366501 0.364447 0.198721 0.568888 0.0996439 0.80808C0.000567188 1.04727 -0.0253558 1.31047 0.0251531 1.5644C0.0756619 1.81832 0.200334 2.05157 0.383404 2.23464C0.566474 2.41771 0.799719 2.54238 1.05364 2.59289C1.30757 2.6434 1.57077 2.61747 1.80996 2.5184C2.04915 2.41932 2.2536 2.25154 2.39743 2.03627C2.54127 1.82101 2.61804 1.56792 2.61804 1.30902C2.61804 1.13712 2.58418 0.966898 2.5184 0.80808C2.45261 0.649262 2.35619 0.504957 2.23464 0.383403C2.11308 0.261849 1.96878 0.165428 1.80996 0.0996432C1.65114 0.0338588 1.48092 0 1.30902 0Z" fill="black"/>
<path opacity="0.5" d="M1.30902 4.26587C1.05012 4.26587 0.797036 4.34264 0.581768 4.48648C0.366501 4.63032 0.198721 4.83476 0.0996439 5.07395C0.000567188 5.31314 -0.0253558 5.57634 0.0251531 5.83027C0.0756619 6.08419 0.200334 6.31744 0.383404 6.50051C0.566474 6.68358 0.799719 6.80825 1.05364 6.85876C1.30757 6.90927 1.57077 6.88334 1.80996 6.78427C2.04915 6.68519 2.2536 6.51741 2.39743 6.30214C2.54127 6.08688 2.61804 5.83379 2.61804 5.57489C2.61804 5.40299 2.58418 5.23277 2.5184 5.07395C2.45261 4.91513 2.35619 4.77083 2.23464 4.64927C2.11308 4.52772 1.96878 4.4313 1.80996 4.36551C1.65114 4.29973 1.48092 4.26587 1.30902 4.26587Z" fill="black"/>
<path opacity="0.5" d="M1.30902 8.5318C1.05012 8.5318 0.797036 8.60857 0.581768 8.75241C0.366501 8.89625 0.198721 9.10069 0.0996439 9.33988C0.000567188 9.57907 -0.0253558 9.84227 0.0251531 10.0962C0.0756619 10.3501 0.200334 10.5834 0.383404 10.7664C0.566474 10.9495 0.799719 11.0742 1.05364 11.1247C1.30757 11.1752 1.57077 11.1493 1.80996 11.0502C2.04915 10.9511 2.2536 10.7833 2.39743 10.5681C2.54127 10.3528 2.61804 10.0997 2.61804 9.84082C2.61804 9.66892 2.58418 9.4987 2.5184 9.33988C2.45261 9.18106 2.35619 9.03676 2.23464 8.9152C2.11308 8.79365 1.96878 8.69723 1.80996 8.63144C1.65114 8.56566 1.48092 8.5318 1.30902 8.5318Z" fill="black"/>
</svg>
